<?xml version="1.0" encoding="UTF-8" standalone="no"?>
<!-- Created with Inkscape (http://www.inkscape.org/) -->

<svg
   width="64pt"
   height="64pt"
   viewBox="0 0 22.577778 22.577778"
   version="1.1"
   id="svg831"
   inkscape:version="1.1.1 (3bf5ae0d25, 2021-09-20)"
   sodipodi:docname="EXPORT.svg"
   inkscape:export-filename="C:\Users\User\Desktop\CARLOS PROJECT\5. MAY 1\Done\FiledLine\16 - Sport Bag.png"
   inkscape:export-xdpi="576"
   inkscape:export-ydpi="576"
   xmlns:inkscape="http://www.inkscape.org/namespaces/inkscape"
   xmlns:sodipodi="http://sodipodi.sourceforge.net/DTD/sodipodi-0.dtd"
   xmlns="http://www.w3.org/2000/svg"
   xmlns:svg="http://www.w3.org/2000/svg"
   xmlns:rdf="http://www.w3.org/1999/02/22-rdf-syntax-ns#"
   xmlns:cc="http://creativecommons.org/ns#"
   xmlns:dc="http://purl.org/dc/elements/1.1/">
  <defs
     id="defs825">
    <pattern
       id="EMFhbasepattern"
       patternUnits="userSpaceOnUse"
       width="6"
       height="6"
       x="0"
       y="0" />
    <pattern
       id="EMFhbasepattern-9"
       patternUnits="userSpaceOnUse"
       width="6"
       height="6"
       x="0"
       y="0" />
    <pattern
       id="EMFhbasepattern-0"
       patternUnits="userSpaceOnUse"
       width="6"
       height="6"
       x="0"
       y="0" />
    <pattern
       id="EMFhbasepattern-7"
       patternUnits="userSpaceOnUse"
       width="6"
       height="6"
       x="0"
       y="0" />
    <pattern
       id="EMFhbasepattern-2"
       patternUnits="userSpaceOnUse"
       width="6"
       height="6"
       x="0"
       y="0" />
    <pattern
       id="EMFhbasepattern-98"
       patternUnits="userSpaceOnUse"
       width="6"
       height="6"
       x="0"
       y="0" />
    <pattern
       id="EMFhbasepattern-6"
       patternUnits="userSpaceOnUse"
       width="6"
       height="6"
       x="0"
       y="0" />
    <pattern
       id="EMFhbasepattern-01"
       patternUnits="userSpaceOnUse"
       width="6"
       height="6"
       x="0"
       y="0" />
    <pattern
       id="EMFhbasepattern-07"
       patternUnits="userSpaceOnUse"
       width="6"
       height="6"
       x="0"
       y="0" />
    <pattern
       id="EMFhbasepattern-8"
       patternUnits="userSpaceOnUse"
       width="6"
       height="6"
       x="0"
       y="0" />
    <pattern
       id="EMFhbasepattern-4"
       patternUnits="userSpaceOnUse"
       width="6"
       height="6"
       x="0"
       y="0" />
    <pattern
       id="EMFhbasepattern-40"
       patternUnits="userSpaceOnUse"
       width="6"
       height="6"
       x="0"
       y="0" />
    <pattern
       id="EMFhbasepattern-08"
       patternUnits="userSpaceOnUse"
       width="6"
       height="6"
       x="0"
       y="0" />
    <pattern
       id="EMFhbasepattern-04"
       patternUnits="userSpaceOnUse"
       width="6"
       height="6"
       x="0"
       y="0" />
    <pattern
       id="EMFhbasepattern-014"
       patternUnits="userSpaceOnUse"
       width="6"
       height="6"
       x="0"
       y="0" />
    <pattern
       id="EMFhbasepattern-27"
       patternUnits="userSpaceOnUse"
       width="6"
       height="6"
       x="0"
       y="0" />
    <pattern
       id="EMFhbasepattern-09"
       patternUnits="userSpaceOnUse"
       width="6"
       height="6"
       x="0"
       y="0" />
    <pattern
       id="EMFhbasepattern-5"
       patternUnits="userSpaceOnUse"
       width="6"
       height="6"
       x="0"
       y="0" />
    <pattern
       id="EMFhbasepattern-018"
       patternUnits="userSpaceOnUse"
       width="6"
       height="6"
       x="0"
       y="0" />
  </defs>
  <sodipodi:namedview
     id="base"
     pagecolor="#ffffff"
     bordercolor="#666666"
     borderopacity="1.0"
     inkscape:pageopacity="0.0"
     inkscape:pageshadow="2"
     inkscape:zoom="9.1757813"
     inkscape:cx="38.470838"
     inkscape:cy="43.320562"
     inkscape:document-units="pt"
     inkscape:current-layer="layer1"
     showgrid="false"
     units="pt"
     inkscape:window-width="1920"
     inkscape:window-height="1001"
     inkscape:window-x="-9"
     inkscape:window-y="-9"
     inkscape:window-maximized="1"
     inkscape:pagecheckerboard="true"
     inkscape:showpageshadow="false"
     inkscape:object-paths="true"
     inkscape:snap-intersection-paths="true"
     inkscape:snap-smooth-nodes="true"
     inkscape:snap-midpoints="true"
     showguides="true"
     inkscape:snap-bbox="true"
     inkscape:bbox-nodes="true"
     inkscape:snap-nodes="false"
     inkscape:snap-global="true">
    <inkscape:grid
       type="xygrid"
       id="grid1378" />
    <sodipodi:guide
       position="0.97013831,21.607643"
       orientation="78.000048,0"
       id="guide1380"
       inkscape:locked="false" />
    <sodipodi:guide
       position="0.97013831,0.97013129"
       orientation="0,78.000005"
       id="guide1382"
       inkscape:locked="false" />
    <sodipodi:guide
       position="21.607639,0.97013129"
       orientation="-78.000048,0"
       id="guide1384"
       inkscape:locked="false" />
    <sodipodi:guide
       position="21.607639,21.607643"
       orientation="0,-78.000005"
       id="guide1386"
       inkscape:locked="false" />
  </sodipodi:namedview>
  <metadata
     id="metadata828">
    <rdf:RDF>
      <cc:Work
         rdf:about="">
        <dc:format>image/svg+xml</dc:format>
        <dc:type
           rdf:resource="http://purl.org/dc/dcmitype/StillImage" />
      </cc:Work>
    </rdf:RDF>
  </metadata>
  <g
     inkscape:label="Icon"
     inkscape:groupmode="layer"
     id="layer1"
     transform="translate(0,-274.42223)">
    <g
       id="g8498"
       style="display:inline;stroke-width:0.80374"
       transform="matrix(1.2441833,0,0,1.2441833,-75.147773,-112.78118)">
      <g
         id="g158778"
         style="display:inline;stroke-width:0.80374">
        <path
           style="color:#000000;fill:#c8dae5;stroke-width:0.80374;stroke-linecap:round;stroke-linejoin:round;-inkscape-stroke:none"
           d="m 75.740234,314.5957 a 0.26460996,0.26460996 0 0 0 -0.263672,0.25977 l -0.01563,1.05859 a 0.26460996,0.26460996 0 0 0 0.263672,0.26758 h 0.677735 c 0.42389,0 0.75,-0.36964 0.75,-0.79297 0,-0.42332 -0.326111,-0.79297 -0.75,-0.79297 z"
           id="path87689" />
        <path
           style="color:#000000;fill:#394d5c;stroke-width:0.80374;stroke-linecap:round;stroke-linejoin:round;-inkscape-stroke:none"
           d="m 74.242187,314.19727 a 0.26460996,0.26460996 0 0 0 -0.265625,0.26562 v 1.85156 a 0.26460996,0.26460996 0 0 0 0.265625,0.26563 h 1.013672 c 0.423878,0 0.75,-0.37161 0.75,-0.79492 v -0.79297 c 0,-0.42332 -0.326129,-0.79492 -0.75,-0.79492 z"
           id="path87701" />
        <path
           style="color:#000000;fill:#394d5c;stroke-width:0.80374;stroke-linecap:round;stroke-linejoin:round;-inkscape-stroke:none"
           d="m 73.800781,313.00781 c -0.423889,0 -0.75,0.36965 -0.75,0.79297 v 3.17578 c 0,0.42333 0.326111,0.79297 0.75,0.79297 h 0.242188 c 0.557837,0 0.992187,-0.48915 0.992187,-1.05859 v -2.64453 c 0,-0.56946 -0.434354,-1.0586 -0.992187,-1.0586 z"
           id="path87695" />
        <path
           id="path89483"
           style="color:#000000;fill:#dc1c4b;stroke-width:3.03776;stroke-linecap:round;stroke-linejoin:round;-inkscape-stroke:none"
           d="m 236.57422,147.29688 a 1.0001006,1.0001006 0 0 0 -1.00391,0.99609 V 180 c 0,0.35216 0.0656,0.68846 0.17969,1.00391 h 53.64062 c 0.11354,-0.31545 0.17969,-0.65175 0.17969,-1.00391 v -31.70703 a 1.0001006,1.0001006 0 0 0 -0.99804,-0.99609 z"
           transform="matrix(0.26458334,0,0,0.26458334,0,280.06666)" />
        <path
           id="path93884"
           style="color:#000000;fill:#b01d47;fill-opacity:1;stroke-width:3.03776;stroke-linecap:round;stroke-linejoin:round;-inkscape-stroke:none"
           d="m 285.57031,159.13554 v 21.86837 h 3.82031 c 0.11355,-0.31545 0.17969,-0.65175 0.17969,-1.00391 v -31.70703 c -0.002,-0.54997 -0.44807,-0.99496 -0.99804,-0.99609 h -51.99805 c -0.55226,-0.002 -1.0017,0.44383 -1.00391,0.99609 v 3.00391 h 42.16134 a 7.8386607,7.8386607 45 0 1 7.83866,7.83866 z"
           transform="matrix(0.26458334,0,0,0.26458334,0,280.06666)"
           sodipodi:nodetypes="cccscccccc" />
        <path
           style="color:#000000;fill:#c8dae5;stroke-width:0.80374;stroke-linecap:round;stroke-linejoin:round;-inkscape-stroke:none"
           d="m 69.007812,314.40864 c -0.02648,-3e-5 -0.05282,0.004 -0.07813,0.0117 l -0.851562,0.26562 c -0.110971,0.0338 -0.186984,0.13595 -0.1875,0.25195 v 0.92766 c 5.16e-4,0.11601 0.07653,0.21815 0.1875,0.25195 l 0.851562,0.26563 c 0.02531,0.008 0.05165,0.0117 0.07813,0.0117 h 0.853516 c 0.02648,4e-5 0.05282,-0.004 0.07813,-0.0117 l 0.853516,-0.26563 c 0.110198,-0.0345 0.185297,-0.13647 0.185547,-0.25195 v -0.92766 c -2.5e-4,-0.11547 -0.07535,-0.21744 -0.185547,-0.25195 l -0.853516,-0.26562 c -0.02531,-0.008 -0.05165,-0.0117 -0.07813,-0.0117 z"
           id="path87653"
           sodipodi:nodetypes="ccccccccccccccccc" />
        <path
           style="color:#000000;fill:#b0c3d3;stroke-width:0.80374;stroke-linecap:round;stroke-linejoin:round;-inkscape-stroke:none"
           d="m 71.242187,313.80078 c -0.435244,0 -0.792968,0.35968 -0.792968,0.79492 v 1.58594 c 0,0.43524 0.357724,0.79492 0.792968,0.79492 h 0.904297 a 0.26460996,0.26460996 0 0 0 0.265625,-0.26562 v -2.64453 a 0.26460996,0.26460996 0 0 0 -0.265625,-0.26563 z"
           id="path87659" />
        <path
           style="color:#000000;fill:#b0c3d3;stroke-width:0.80374;stroke-linecap:round;stroke-linejoin:round;-inkscape-stroke:none"
           d="m 66.722656,313.80078 a 0.26460996,0.26460996 0 0 0 -0.263672,0.26563 v 2.64453 a 0.26460996,0.26460996 0 0 0 0.263672,0.26562 h 0.904297 c 0.435244,0 0.792969,-0.35968 0.792969,-0.79492 v -1.58594 c 0,-0.43524 -0.357725,-0.79492 -0.792969,-0.79492 z"
           id="path87665" />
        <path
           style="color:#000000;fill:#c8dae5;stroke-width:0.80374;stroke-linecap:round;stroke-linejoin:round;-inkscape-stroke:none"
           d="m 62.556641,314.5957 c -0.42389,0 -0.75,0.36965 -0.75,0.79297 0,0.42333 0.32611,0.79297 0.75,0.79297 h 0.572265 a 0.26460996,0.26460996 0 0 0 0.265625,-0.25977 l 0.01367,-1.05859 a 0.26460996,0.26460996 0 0 0 -0.263672,-0.26758 z"
           id="path87294" />
        <path
           style="color:#000000;fill:#3a4d5c;stroke-width:0.80374;stroke-linecap:round;stroke-linejoin:round;-inkscape-stroke:none"
           d="m 63.613281,314.19727 c -0.423871,0 -0.748047,0.3716 -0.748047,0.79492 v 0.79297 c 0,0.42331 0.32417,0.79492 0.748047,0.79492 h 0.486328 a 0.26460996,0.26460996 0 0 0 0.263672,-0.26563 v -1.85156 a 0.26460996,0.26460996 0 0 0 -0.263672,-0.26562 z"
           id="path87540" />
        <path
           style="color:#000000;fill:#394d5c;stroke-width:0.80374;stroke-linecap:round;stroke-linejoin:round;-inkscape-stroke:none"
           d="m 64.826172,313.00781 c -0.557833,0 -0.992188,0.48914 -0.992188,1.0586 v 2.64453 c 0,0.56944 0.434351,1.05859 0.992188,1.05859 h 0.242187 c 0.42389,0 0.75,-0.36964 0.75,-0.79297 v -3.17578 c 0,-0.42332 -0.32611,-0.79297 -0.75,-0.79297 z"
           id="path87683" />
        <path
           style="color:#000000;fill:#394d5c;stroke-width:0.80374;stroke-linecap:round;stroke-linejoin:round;-inkscape-stroke:none"
           d="m 72.103516,312.08203 c -0.42389,0 -0.75,0.36964 -0.75,0.79297 v 5.02734 c 0,0.42333 0.32611,0.79297 0.75,0.79297 h 0.484375 c 0.557837,0 0.992187,-0.48914 0.992187,-1.05859 v -4.49805 c 0,-0.56945 -0.434354,-1.05664 -0.992187,-1.05664 z"
           id="path87671" />
        <path
           style="color:#000000;fill:#394d5c;stroke-width:0.80374;stroke-linecap:round;stroke-linejoin:round;-inkscape-stroke:none"
           d="m 66.28125,312.08203 c -0.557833,0 -0.992188,0.48719 -0.992188,1.05664 v 4.49805 c 0,0.56945 0.43435,1.05859 0.992188,1.05859 h 0.486328 c 0.423889,0 0.75,-0.36964 0.75,-0.79297 V 312.875 c 0,-0.42333 -0.326111,-0.79297 -0.75,-0.79297 z"
           id="path87677" />
        <path
           style="color:#000000;fill:#394d5c;stroke-width:0.80374;stroke-linecap:round;stroke-linejoin:round;-inkscape-stroke:none"
           d="m 61.787109,317.90234 c -0.256111,0 -0.469418,0.16232 -0.558593,0.36719 -0.08918,0.20487 -0.06124,0.47076 0.113281,0.6582 l 0.335937,0.36133 a 0.26460996,0.26460996 0 0 0 0,0.002 c 0.164921,0.17706 0.396549,0.27734 0.638672,0.27734 h 14.310547 c 0.242071,0 0.473725,-0.10214 0.638672,-0.2793 l 0.337891,-0.36133 c 0.174518,-0.18744 0.202456,-0.45333 0.113281,-0.6582 -0.08917,-0.20487 -0.304436,-0.36719 -0.560547,-0.36719 z"
           id="path89477" />
        <path
           id="path90048"
           style="color:#000000;fill:#5aabdd;stroke-width:3.03776;stroke-linecap:round;stroke-linejoin:round;-inkscape-stroke:none"
           d="m 242.57617,151.00391 c -1.645,0 -3.0039,1.35109 -3.0039,2.99609 v 27.00391 h 46.0039 V 154 c 0,-1.645 -1.35891,-2.99609 -3.0039,-2.99609 z"
           transform="matrix(0.26458334,0,0,0.26458334,0,280.06666)"
           sodipodi:nodetypes="ssccsss" />
        <path
           id="path90444"
           style="color:#000000;fill:#2c5eb5;stroke-width:3.03776;stroke-linecap:round;stroke-linejoin:round;-inkscape-stroke:none"
           d="m 257.27344,166.00391 c -1.48142,0 -2.70117,1.21978 -2.70117,2.70117 v 12.29883 h 16.0039 v -12.29883 c 0,-1.48139 -1.22757,-2.70117 -2.70898,-2.70117 z"
           transform="matrix(0.26458334,0,0,0.26458334,0,280.06666)"
           sodipodi:nodetypes="ssccsss" />
        <path
           style="color:#000000;fill:#2c5eb5;stroke-width:0.80374;stroke-linecap:round;stroke-linejoin:round;-inkscape-stroke:none"
           d="m 65.900391,324.25195 c -0.435233,0 -0.792969,0.35774 -0.792969,0.79297 v 1.58789 c 0,0.43524 0.357736,0.79492 0.792969,0.79492 h 0.265625 c 0.435232,0 0.792968,-0.35968 0.792968,-0.79492 v -1.58789 c 0,-0.43523 -0.357736,-0.79297 -0.792968,-0.79297 z"
           id="path89856" />
        <path
           style="color:#000000;fill:#394d5c;stroke-width:0.80374;stroke-linecap:round;stroke-linejoin:round;-inkscape-stroke:none"
           d="m 67.355469,321.07617 c -0.289119,0 -0.529297,0.24018 -0.529297,0.5293 v 1.32422 c 0,0.28912 0.240178,0.52929 0.529297,0.52929 h 4.234375 c 0.289119,0 0.529297,-0.24017 0.529297,-0.52929 v -1.32422 c 0,-0.28912 -0.240178,-0.5293 -0.529297,-0.5293 z"
           id="path90248" />
      </g>
      <path
         id="path8400-2"
         style="color:#000000;fill:#000000;stroke-width:3.03776;stroke-linecap:round;stroke-linejoin:round;-inkscape-stroke:none"
         d="m 250.51172,121.00391 c -1.99029,0 -3.5643,1.64042 -3.73438,3.63476 -0.26702,-0.0891 -0.55141,-0.13672 -0.84961,-0.13672 h -0.91601 c -2.10835,0 -3.75,1.84967 -3.75,4.00196 v 0.49414 h -0.83399 c -1.06462,0 -1.96249,0.62018 -2.44531,1.50586 h -1.54883 c -1.6021,0 -2.83398,1.39614 -2.83398,2.99609 0,1.59999 1.23188,2.99805 2.83398,2.99805 h 1.54883 c 0.48282,0.88567 1.38068,1.50586 2.44531,1.50586 h 0.83399 v 0.49414 c 0,2.15221 1.64164,4.00195 3.75,4.00195 h 0.91601 c 0.29887,0 0.58403,-0.0492 0.85157,-0.13867 0.17286,1.99222 1.74422,3.63672 3.73242,3.63672 h 1.83789 c 1.6021,0 2.83398,-1.39611 2.83398,-2.9961 v -3.5 h 0.41407 c 1.52598,0 2.80019,-1.16993 2.97656,-2.65234 l 2.09472,0.62987 c 0.0955,0.0296 3.52149,0 3.52149,0 0.1,-1.4e-4 2.09668,-0.62792 2.09668,-0.62792 0.17731,1.48143 1.44934,2.65039 2.97461,2.65039 h 0.41992 v 3.5 c 0,1.59999 1.23383,2.9961 2.83594,2.9961 h 1.83008 c 1.98819,0 3.55955,-1.6445 3.73242,-3.63672 0.26754,0.0895 0.5527,0.13867 0.85156,0.13867 h 0.91602 c 2.10836,0 3.75,-1.84974 3.75,-4.00195 v -0.49414 h 0.83398 c 1.06464,0 1.96617,-0.62019 2.45117,-1.50586 h 1.88281 c 1.60211,0 2.83399,-1.39806 2.83399,-2.99805 0,-1.59995 -1.23188,-2.99609 -2.83399,-2.99609 h -1.88281 c -0.48501,-0.88568 -1.38655,-1.50586 -2.45117,-1.50586 h -0.83398 v -0.49414 c 0,-2.15229 -1.64166,-4.00196 -3.75,-4.00196 h -0.91602 c -0.2982,0 -0.58258,0.0476 -0.84961,0.13672 -0.17007,-1.99434 -1.74408,-3.63476 -3.73437,-3.63476 h -1.83008 c -1.60211,0 -2.83594,1.3961 -2.83594,2.99609 v 3.5 h -0.41992 c -1.52505,0 -2.79701,1.16732 -2.97461,2.64844 l -2.09668,-0.62697 c -0.0956,-0.029 -3.52149,0 -3.52149,0 -0.0999,-4.8e-4 -2.09472,0.62892 -2.09472,0.62892 C 258.39754,128.66831 257.1234,127.5 255.59766,127.5 h -0.41407 V 124 c 0,-1.59999 -1.23188,-2.99609 -2.83398,-2.99609 z m 0,2 h 1.83789 c 0.42294,0 0.83398,0.38694 0.83398,0.99609 0,6.33398 0,12.66797 0,19.00195 0,0.60919 -0.41104,0.9961 -0.83398,0.9961 h -1.83789 c -0.9292,0 -1.75,-0.83859 -1.75,-2 0,-3 0,-6 0,-9 -0.002,-0.54924 -0.44686,-0.99396 -0.9961,-0.9961 -0.55229,-0.002 -1.00175,0.44381 -1.0039,0.9961 v 6.5039 c 0,0.60919 -0.41104,0.9961 -0.83399,0.9961 h -0.91601 c -0.9292,0 -1.74805,-0.83859 -1.74805,-2 v -9.99414 c 0,-1.16149 0.81883,-2.00196 1.74805,-2.00196 h 0.91601 c 0.42295,0 0.83399,0.3889 0.83399,0.99805 v 1.49805 c -0.002,0.55533 0.44857,1.00607 1.0039,1.0039 0.55229,-0.002 0.99826,-0.45161 0.9961,-1.0039 0,-1.33399 0,-2.66797 0,-4.00196 0,-1.16145 0.82078,-1.99218 1.75,-1.99218 z m 22.00586,0 h 1.83008 c 0.92921,0 1.75,0.83073 1.75,1.99218 V 135 c -0.002,0.55534 0.44856,1.00608 1.0039,1.00391 0.55229,-0.002 0.99826,-0.45162 0.9961,-1.00391 v -7.5 c 0,-0.60915 0.41104,-0.99805 0.83398,-0.99805 h 0.91602 c 0.92922,0 1.75,0.84047 1.75,2.00196 v 9.99414 c 0,1.16141 -0.8208,2 -1.75,2 h -0.91602 c -0.42294,0 -0.83398,-0.38691 -0.83398,-0.9961 V 139 c -0.002,-0.54924 -0.44686,-0.99395 -0.9961,-0.99609 -0.55228,-0.002 -1.00174,0.44381 -1.0039,0.99609 v 2.99805 c 0,1.16141 -0.82081,2 -1.75,2 h -1.83008 c -0.42295,0 -0.83399,-0.38691 -0.83399,-0.9961 V 124 c 0,-0.60915 0.41104,-0.99609 0.83399,-0.99609 z M 255.18359,129.5 h 0.41407 c 0.56412,0 0.99609,0.43977 0.99609,1.00391 v 5.99414 c 0,0.56413 -0.43197,1.0039 -0.99609,1.0039 h -0.41407 z m 14.49801,0 v 8.00195 h -0.41992 c -0.56412,0 -0.9961,-0.43977 -0.9961,-1.0039 v -5.99414 c 0,-0.54651 0.40513,-0.97758 0.94336,-1.00391 z m -29.25387,1.49805 h 0.83399 v 5.00586 h -0.83399 c -0.42289,0 -0.82617,-0.39484 -0.82617,-1.00391 v -2.99805 c 0,-0.60914 0.40326,-1.0039 0.82617,-1.0039 z m 43.16993,0 h 0.83398 c 0.42292,0 0.83399,0.39476 0.83398,1.0039 V 135 c 0,0.60907 -0.41109,1.00391 -0.83398,1.00391 h -0.83398 z m -22.625,0.50195 h 2.91601 l 2.37695,0.73633 v 2.52344 l -2.37695,0.74218 h -2.91601 l -2.37696,-0.74218 v -2.52344 z m -24.53907,0.99609 h 1.16797 v 2 h -1.16797 c -0.42295,0 -0.83398,-0.38694 -0.83398,-0.99609 0,-0.60915 0.41103,-1.00391 0.83398,-1.00391 z m 50.83203,0 h 1.5 c 0.42295,0 0.83399,0.39476 0.83399,1.00391 0,0.60918 -0.41104,0.99609 -0.83399,0.99609 h -1.5 z M 235.57034,180 c 0,0.35216 0.0656,0.68846 0.17969,1.00391 h -3.17578 c -0.5523,-0.002 -1.00178,0.44379 -1.00394,0.99609 -0.002,0.55534 0.44857,1.00609 1.00391,1.00391 h 60 c 0.55229,-0.002 0.99825,-0.45162 0.99609,-1.00391 -0.002,-0.54923 -0.44686,-0.99395 -0.99609,-0.99609 h -3.1836 c 0.11354,-0.31545 0.17969,-0.65175 0.17969,-1.00391 l 0.043,-30.70117 c 0.91492,0 1.79064,-0.38706 2.41406,-1.05664 l 1.27735,-1.36524 c 0.65959,-0.70843 0.76477,-1.71397 0.42773,-2.48828 -0.33702,-0.77431 -1.15116,-1.38672 -2.11914,-1.38672 h -7.58789 c -0.54924,0.002 -0.99395,0.44686 -0.99609,0.9961 -0.002,0.55228 0.44381,1.00174 0.99609,1.0039 h 7.58789 c 0.32538,0 0.35286,0.3601 0.23045,0.50977 l -1.27734,1.37109 c -0.24575,0.26381 -0.59251,0.41407 -0.95313,0.41407 h -54.08594 c -0.36041,0 -0.69945,-0.14999 -0.94531,-0.41407 l -1.27734,-1.37109 c -0.2603,-0.2603 -0.0521,-0.50977 0.2207,-0.50977 h 7.58984 c 0.55534,0.002 1.00608,-0.44856 1.00391,-1.0039 -0.002,-0.55229 -0.45162,-0.99826 -1.00391,-0.9961 h -7.58985 c -0.96798,0 -1.77429,0.61241 -2.11133,1.38672 -0.33706,0.77431 -0.22992,1.77985 0.42969,2.48828 l 1.26953,1.36524 c -1e-5,0.003 -1e-5,0.005 0,0.008 0.62332,0.6692 1.49895,1.04883 2.41406,1.04883 z m 22.00583,-36.99805 c -0.55229,-0.002 -1.00175,0.44381 -1.0039,0.9961 -0.002,0.55533 0.44857,1.00607 1.0039,1.0039 h 9.9961 c 0.55533,0.002 1.00607,-0.44857 1.0039,-1.0039 -0.002,-0.55229 -0.45161,-0.99826 -1.0039,-0.9961 z m -20.0039,6.29688 h 50.0039 V 180 c 1e-5,0.56413 -0.43978,1.00391 -1.0039,1.00391 h -0.9961 V 154 c 0,-1.645 -1.35891,-2.99609 -3.0039,-2.99609 h -39.9961 c -1.645,0 -3.0039,1.35109 -3.0039,2.99609 v 27.00391 h -0.9961 c -0.56413,0 -1.00391,-0.43978 -1.0039,-1.00391 z m 18.0039,3.70508 v 1.99218 h -1.0039 c -1.09274,0 -2,0.90922 -2,2.00196 v 5.0039 c 0,1.09274 0.90726,2 2,2 h 16.0039 c 1.09274,0 2,-0.90726 2,-2 v -5.0039 c 0,-1.09274 -0.90726,-2.00196 -2,-2.00196 h -1.0039 v -1.99218 h 13 c 0.56414,0 1.0039,0.43196 1.0039,0.99609 v 27.00391 h -13 v -12.29883 c 0,-1.48139 -1.22757,-2.70117 -2.70898,-2.70117 h -10.59375 c -1.48142,0 -2.70117,1.21978 -2.70117,2.70117 v 12.29883 h -13 v -11.22852 l 5.77343,-5.77344 h 1.22461 V 165 c -0.002,0.55534 0.44857,1.00609 1.00391,1.00391 0.55229,-0.002 0.99825,-0.45162 0.99609,-1.00391 v -1.95117 c 0,-0.65222 -0.40992,-1.04749 -0.99729,-1.04749 -2.66878,-2.2e-4 -5.33221,0 -8.00197,0 V 154 c 0,-0.56413 0.43976,-0.99609 1.0039,-0.99609 z m 2,0 h 9.9961 v 1.99218 h -9.9961 z m -3.0039,3.99414 h 16.0039 v 5.0039 h -16.0039 z m 22.29296,5.52734 -3.53515,3.53711 c -0.38783,0.39006 -0.38783,1.0201 0,1.41016 0.39073,0.39172 1.02528,0.39172 1.41601,0 l 3.53711,-3.53711 c 0.38783,-0.39006 0.38783,-1.0201 0,-1.41016 -0.45975,-0.41526 -1.01724,-0.34825 -1.41797,0 z m -35.29296,1.47656 h 2.94726 l -2.94726,2.95117 z m 37.29296,2.28907 -2.18554,2.18554 c -0.39173,0.39073 -0.39173,1.02529 0,1.41602 0.39095,0.39303 1.02702,0.39303 1.41797,0 l 2.18554,-2.1836 c 0.39303,-0.39095 0.39303,-1.02701 0,-1.41796 -0.47672,-0.44561 -1.04722,-0.3532 -1.41797,0 z M 248.99609,167 c -1.61,0.0413 -2.91992,1.37683 -2.91992,2.99609 v 6.00196 c 0,1.645 1.35112,3.0039 2.9961,3.0039 h 1.0039 c 1.64497,0 2.99805,-1.3589 2.99805,-3.0039 v -6.00196 c 0,-1.64496 -1.35308,-2.99609 -2.99805,-2.99609 z m 8.27735,1.00391 h 4.29687 v 13 h -4.99804 v -12.29883 c 0,-0.40048 0.30067,-0.70117 0.70117,-0.70117 z m 6.29687,0 h 4.29688 c 0.40051,0 0.70898,0.30076 0.70898,0.70117 v 12.29883 h -5.00586 z M 249.07227,169 h 1.0039 c 0.56409,0 0.9961,0.432 0.9961,0.99609 v 6.00196 c 0,0.56409 -0.43201,1.0039 -0.9961,1.0039 h -1.0039 c -0.5641,0 -0.9961,-0.43981 -0.9961,-1.0039 v -6.00196 c 0,-0.56409 0.432,-0.99609 0.9961,-0.99609 z m 10.49609,4.99609 c -0.55229,0.002 -0.99825,0.45162 -0.99609,1.00391 0.002,0.54923 0.44686,0.99395 0.99609,0.99609 0.55229,0.002 1.00175,-0.4438 1.00391,-0.99609 0.002,-0.55534 -0.44857,-1.00609 -1.00391,-1.00391 z m 6,0 c -0.55229,0.002 -0.99825,0.45162 -0.99609,1.00391 0.002,0.54923 0.44686,0.99395 0.99609,0.99609 0.55229,0.002 1.00175,-0.4438 1.00391,-0.99609 0.002,-0.55534 -0.44857,-1.00609 -1.00391,-1.00391 z"
         transform="matrix(0.26458334,0,0,0.26458334,0,280.06666)"
         sodipodi:nodetypes="scssscscssscscssscssscsccccscssscssscscssscscssscssscsccccscsssssccssccscsssssssscsccsssscscsssssssscscsssssscssssccccsssccsccsssscsssscccccccccccsccssscssscccccsccsccccccsscsccccssccccscssccccccsccscccccscsssscsccccssssssssccssccssssccccccsccccscccccccccccccccccccccccccccccccssssssccscccsscsscccsssssssssssssssssss" />
    </g>
  </g>
</svg>
